<?xml version="1.0" standalone="no"?>
<!DOCTYPE svg PUBLIC "-//W3C//DTD SVG 20010904//EN"
 "http://www.w3.org/TR/2001/REC-SVG-20010904/DTD/svg10.dtd">
<svg version="1.0" xmlns="http://www.w3.org/2000/svg"
 width="668.000000pt" height="594.000000pt" viewBox="0 0 668.000000 594.000000"
 preserveAspectRatio="xMidYMid meet">

<g transform="translate(0.000000,594.000000) scale(0.100000,-0.100000)"
fill="#000000" stroke="none">
<path d="M0 2970 l0 -2970 3340 0 3340 0 0 2970 0 2970 -3340 0 -3340 0 0
-2970z m2660 516 c0 -68 -3 -131 -6 -140 -5 -13 -27 -16 -133 -16 -85 0 -131
4 -139 12 -8 8 -12 54 -12 140 l0 128 145 0 145 0 0 -124z m970 -16 l0 -141
-137 3 -138 3 -3 138 -3 137 141 0 140 0 0 -140z m-982 -178 c9 -7 12 -40 10
-133 l-3 -124 -142 -3 -143 -3 0 130 c0 115 2 130 18 134 31 8 247 7 260 -1z
m331 -6 c8 -9 11 -54 9 -132 l-3 -119 -145 0 -145 0 -3 120 c-2 104 0 121 15
132 25 19 256 18 272 -1z m643 1 c10 -10 12 -44 10 -135 l-3 -122 -140 0 -139
0 0 128 c0 71 3 132 7 135 3 4 62 7 129 7 88 0 126 -4 136 -13z m-967 -319 c3
-13 4 -75 3 -138 l-3 -115 -140 0 -140 0 -3 124 c-2 82 1 128 9 137 9 11 42
14 140 14 125 0 129 -1 134 -22z m653 -120 l3 -138 -140 0 c-117 0 -140 2
-145 16 -8 20 -8 212 0 242 6 22 8 23 143 20 l136 -3 3 -137z m320 0 l3 -138
-141 0 -140 0 0 133 c0 74 3 137 7 141 4 3 66 5 137 4 l131 -3 3 -137z m-1418
-305 c0 -71 -4 -134 -8 -141 -7 -9 -40 -12 -133 -10 l-124 3 -3 138 -3 137
136 0 135 0 0 -127z m448 7 c4 -173 15 -160 -136 -160 -86 0 -132 4 -140 12
-13 13 -18 249 -5 262 4 3 68 5 142 4 l136 -3 3 -115z m970 -17 l-3 -138 -135
0 -135 0 -3 138 -3 137 141 0 141 0 -3 -137z"/>
</g>
</svg>
